{
	"patcher" : 	{
		"fileversion" : 1,
		"appversion" : 		{
			"major" : 6,
			"minor" : 0,
			"revision" : 7
		}
,
		"rect" : [ 339.0, 293.0, 640.0, 480.0 ],
		"bglocked" : 0,
		"openinpresentation" : 0,
		"default_fontsize" : 12.0,
		"default_fontface" : 0,
		"default_fontname" : "Arial",
		"gridonopen" : 0,
		"gridsize" : [ 15.0, 15.0 ],
		"gridsnaponopen" : 0,
		"statusbarvisible" : 2,
		"toolbarvisible" : 1,
		"boxanimatetime" : 200,
		"imprint" : 0,
		"enablehscroll" : 1,
		"enablevscroll" : 1,
		"devicewidth" : 0.0,
		"description" : "",
		"digest" : "",
		"tags" : "",
		"boxes" : [ 			{
				"box" : 				{
					"fontname" : "Arial",
					"fontsize" : 12.0,
					"id" : "obj-10",
					"maxclass" : "newobj",
					"numinlets" : 2,
					"numoutlets" : 1,
					"outlettype" : [ "int" ],
					"patching_rect" : [ 147.0, 114.0, 38.0, 20.0 ],
					"text" : "% 28"
				}

			}
, 			{
				"box" : 				{
					"fontname" : "Arial",
					"fontsize" : 12.0,
					"id" : "obj-5",
					"maxclass" : "newobj",
					"numinlets" : 2,
					"numoutlets" : 1,
					"outlettype" : [ "int" ],
					"patching_rect" : [ 92.0, 167.0, 32.5, 20.0 ],
					"text" : "+ 1"
				}

			}
, 			{
				"box" : 				{
					"fontname" : "Arial",
					"fontsize" : 12.0,
					"id" : "obj-26",
					"maxclass" : "newobj",
					"numinlets" : 2,
					"numoutlets" : 1,
					"outlettype" : [ "int" ],
					"patching_rect" : [ 147.0, 179.0, 32.5, 20.0 ],
					"text" : "+ 1"
				}

			}
, 			{
				"box" : 				{
					"fontname" : "Arial",
					"fontsize" : 12.0,
					"id" : "obj-22",
					"maxclass" : "newobj",
					"numinlets" : 1,
					"numoutlets" : 1,
					"outlettype" : [ "int" ],
					"patching_rect" : [ 92.0, 141.0, 30.0, 20.0 ],
					"text" : "abs"
				}

			}
, 			{
				"box" : 				{
					"fontname" : "Arial",
					"fontsize" : 12.0,
					"id" : "obj-17",
					"maxclass" : "newobj",
					"numinlets" : 1,
					"numoutlets" : 1,
					"outlettype" : [ "int" ],
					"patching_rect" : [ 147.0, 151.0, 30.0, 20.0 ],
					"text" : "abs"
				}

			}
, 			{
				"box" : 				{
					"comment" : "root",
					"id" : "obj-15",
					"maxclass" : "inlet",
					"numinlets" : 0,
					"numoutlets" : 1,
					"outlettype" : [ "int" ],
					"patching_rect" : [ 117.0, 49.0, 25.0, 25.0 ]
				}

			}
, 			{
				"box" : 				{
					"comment" : "mode",
					"id" : "obj-7",
					"maxclass" : "inlet",
					"numinlets" : 0,
					"numoutlets" : 1,
					"outlettype" : [ "int" ],
					"patching_rect" : [ 147.0, 49.0, 25.0, 25.0 ]
				}

			}
, 			{
				"box" : 				{
					"comment" : "notestobemapped",
					"id" : "obj-6",
					"maxclass" : "inlet",
					"numinlets" : 0,
					"numoutlets" : 1,
					"outlettype" : [ "" ],
					"patching_rect" : [ 92.0, 49.0, 25.0, 25.0 ]
				}

			}
, 			{
				"box" : 				{
					"fontname" : "Arial",
					"fontsize" : 12.0,
					"id" : "obj-3",
					"maxclass" : "newobj",
					"numinlets" : 2,
					"numoutlets" : 1,
					"outlettype" : [ "int" ],
					"patching_rect" : [ 92.0, 392.0, 44.0, 20.0 ],
					"text" : "+"
				}

			}
, 			{
				"box" : 				{
					"comment" : "",
					"id" : "obj-16",
					"maxclass" : "outlet",
					"numinlets" : 1,
					"numoutlets" : 0,
					"patching_rect" : [ 92.0, 427.0, 25.0, 25.0 ]
				}

			}
, 			{
				"box" : 				{
					"fontname" : "Arial",
					"fontsize" : 12.0,
					"id" : "obj-14",
					"maxclass" : "newobj",
					"numinlets" : 1,
					"numoutlets" : 2,
					"outlettype" : [ "int", "int" ],
					"patching_rect" : [ 92.0, 84.0, 109.75, 20.0 ],
					"text" : "t i i"
				}

			}
, 			{
				"box" : 				{
					"fontname" : "Arial",
					"fontsize" : 12.0,
					"id" : "obj-13",
					"maxclass" : "newobj",
					"numinlets" : 2,
					"numoutlets" : 1,
					"outlettype" : [ "int" ],
					"patching_rect" : [ 182.75, 314.0, 32.5, 20.0 ],
					"text" : "* 12"
				}

			}
, 			{
				"box" : 				{
					"fontname" : "Arial",
					"fontsize" : 12.0,
					"id" : "obj-12",
					"maxclass" : "newobj",
					"numinlets" : 2,
					"numoutlets" : 1,
					"outlettype" : [ "int" ],
					"patching_rect" : [ 92.0, 349.0, 109.75, 20.0 ],
					"text" : "+"
				}

			}
, 			{
				"box" : 				{
					"fontname" : "Arial",
					"fontsize" : 12.0,
					"id" : "obj-11",
					"maxclass" : "newobj",
					"numinlets" : 2,
					"numoutlets" : 1,
					"outlettype" : [ "int" ],
					"patching_rect" : [ 182.75, 245.0, 32.5, 20.0 ],
					"text" : "/ 7"
				}

			}
, 			{
				"box" : 				{
					"fontname" : "Arial",
					"fontsize" : 12.0,
					"id" : "obj-9",
					"maxclass" : "newobj",
					"numinlets" : 2,
					"numoutlets" : 1,
					"outlettype" : [ "" ],
					"patching_rect" : [ 92.0, 210.0, 36.0, 20.0 ],
					"text" : "pack"
				}

			}
, 			{
				"box" : 				{
					"fontname" : "Arial",
					"fontsize" : 12.0,
					"id" : "obj-8",
					"maxclass" : "message",
					"numinlets" : 2,
					"numoutlets" : 1,
					"outlettype" : [ "" ],
					"patching_rect" : [ 92.0, 245.0, 61.0, 18.0 ],
					"text" : "nth $2 $1"
				}

			}
, 			{
				"box" : 				{
					"fontname" : "Arial",
					"fontsize" : 12.0,
					"id" : "obj-4",
					"maxclass" : "newobj",
					"numinlets" : 2,
					"numoutlets" : 1,
					"outlettype" : [ "int" ],
					"patching_rect" : [ 92.0, 114.0, 32.5, 20.0 ],
					"text" : "% 7"
				}

			}
, 			{
				"box" : 				{
					"coll_data" : 					{
						"count" : 28,
						"data" : [ 							{
								"key" : 1,
								"value" : [ 0, 2, 4, 5, 7, 9, 11, 12, 14, 16, 17, 19, 21, 23, 24 ]
							}
, 							{
								"key" : 2,
								"value" : [ 0, 2, 3, 5, 7, 9, 10, 12, 14, 15, 17, 19, 21, 22, 24 ]
							}
, 							{
								"key" : 3,
								"value" : [ 0, 1, 3, 5, 7, 8, 10, 12, 13, 15, 17, 19, 20, 22, 24 ]
							}
, 							{
								"key" : 4,
								"value" : [ 0, 2, 4, 6, 7, 9, 11, 12, 14, 16, 18, 19, 21, 23, 24 ]
							}
, 							{
								"key" : 5,
								"value" : [ 0, 2, 4, 5, 7, 9, 10, 12, 14, 16, 17, 19, 21, 22, 24 ]
							}
, 							{
								"key" : 6,
								"value" : [ 0, 2, 3, 5, 7, 8, 10, 12, 14, 15, 17, 19, 20, 22, 24 ]
							}
, 							{
								"key" : 7,
								"value" : [ 0, 1, 3, 5, 6, 8, 10, 12, 13, 15, 17, 18, 20, 22, 24 ]
							}
, 							{
								"key" : 8,
								"value" : [ 0, 2, 4, 5, 7, 8, 11, 12, 14, 16, 17, 19, 20, 23, 24 ]
							}
, 							{
								"key" : 9,
								"value" : [ 0, 2, 3, 5, 6, 9, 10, 12, 14, 15, 17, 18, 21, 22, 24 ]
							}
, 							{
								"key" : 10,
								"value" : [ 0, 1, 3, 4, 7, 8, 10, 12, 13, 15, 16, 19, 20, 22, 24 ]
							}
, 							{
								"key" : 11,
								"value" : [ 0, 2, 3, 6, 7, 9, 11, 12, 14, 15, 18, 19, 21, 23, 24 ]
							}
, 							{
								"key" : 12,
								"value" : [ 0, 1, 4, 5, 7, 9, 10, 12, 13, 16, 17, 19, 21, 22, 24 ]
							}
, 							{
								"key" : 13,
								"value" : [ 0, 3, 4, 6, 8, 9, 11, 12, 15, 16, 18, 20, 21, 23, 24 ]
							}
, 							{
								"key" : 14,
								"value" : [ 0, 1, 3, 5, 6, 8, 9, 12, 13, 15, 17, 18, 20, 21, 24 ]
							}
, 							{
								"key" : 15,
								"value" : [ 0, 2, 3, 5, 7, 8, 11, 12, 14, 15, 17, 19, 20, 23, 24 ]
							}
, 							{
								"key" : 16,
								"value" : [ 0, 2, 4, 5, 8, 9, 11, 12, 14, 16, 17, 20, 21, 23, 24 ]
							}
, 							{
								"key" : 17,
								"value" : [ 0, 2, 4, 5, 8, 9, 11, 12, 14, 16, 17, 20, 21, 23, 24 ]
							}
, 							{
								"key" : 18,
								"value" : [ 0, 2, 3, 6, 7, 9, 10, 12, 14, 15, 18, 19, 21, 22, 24 ]
							}
, 							{
								"key" : 19,
								"value" : [ 0, 1, 4, 5, 7, 8, 10, 12, 13, 16, 17, 19, 20, 22, 24 ]
							}
, 							{
								"key" : 20,
								"value" : [ 0, 3, 4, 6, 7, 9, 11, 12, 15, 16, 18, 19, 21, 23, 24 ]
							}
, 							{
								"key" : 21,
								"value" : [ 0, 1, 3, 4, 6, 8, 9, 12, 13, 15, 16, 18, 20, 21, 24 ]
							}
, 							{
								"key" : 22,
								"value" : [ 0, 2, 3, 5, 7, 9, 11, 12, 14, 15, 17, 19, 21, 23, 24 ]
							}
, 							{
								"key" : 23,
								"value" : [ 0, 1, 3, 5, 7, 9, 10, 12, 13, 15, 17, 19, 21, 22, 24 ]
							}
, 							{
								"key" : 24,
								"value" : [ 0, 2, 4, 6, 8, 9, 11, 12, 14, 16, 18, 20, 21, 23, 24 ]
							}
, 							{
								"key" : 25,
								"value" : [ 0, 2, 4, 6, 7, 9, 10, 12, 14, 16, 18, 19, 21, 22, 24 ]
							}
, 							{
								"key" : 26,
								"value" : [ 0, 2, 4, 5, 7, 8, 10, 12, 14, 16, 17, 19, 20, 22, 24 ]
							}
, 							{
								"key" : 27,
								"value" : [ 0, 2, 3, 5, 6, 8, 10, 12, 14, 15, 17, 18, 20, 22, 24 ]
							}
, 							{
								"key" : 28,
								"value" : [ 0, 1, 3, 4, 6, 8, 10, 12, 13, 15, 16, 18, 20, 22, 24 ]
							}
 ]
					}
,
					"fontname" : "Arial",
					"fontsize" : 12.0,
					"id" : "obj-1",
					"maxclass" : "newobj",
					"numinlets" : 1,
					"numoutlets" : 4,
					"outlettype" : [ "", "", "", "" ],
					"patching_rect" : [ 92.0, 278.0, 128.0, 20.0 ],
					"saved_object_attributes" : 					{
						"embed" : 1
					}
,
					"text" : "coll scales @embed 1"
				}

			}
 ],
		"lines" : [ 			{
				"patchline" : 				{
					"destination" : [ "obj-12", 0 ],
					"disabled" : 0,
					"hidden" : 0,
					"source" : [ "obj-1", 0 ]
				}

			}
, 			{
				"patchline" : 				{
					"destination" : [ "obj-17", 0 ],
					"disabled" : 0,
					"hidden" : 0,
					"source" : [ "obj-10", 0 ]
				}

			}
, 			{
				"patchline" : 				{
					"destination" : [ "obj-13", 0 ],
					"disabled" : 0,
					"hidden" : 0,
					"source" : [ "obj-11", 0 ]
				}

			}
, 			{
				"patchline" : 				{
					"destination" : [ "obj-3", 0 ],
					"disabled" : 0,
					"hidden" : 0,
					"source" : [ "obj-12", 0 ]
				}

			}
, 			{
				"patchline" : 				{
					"destination" : [ "obj-12", 1 ],
					"disabled" : 0,
					"hidden" : 0,
					"source" : [ "obj-13", 0 ]
				}

			}
, 			{
				"patchline" : 				{
					"destination" : [ "obj-11", 0 ],
					"disabled" : 0,
					"hidden" : 0,
					"source" : [ "obj-14", 1 ]
				}

			}
, 			{
				"patchline" : 				{
					"destination" : [ "obj-4", 0 ],
					"disabled" : 0,
					"hidden" : 0,
					"source" : [ "obj-14", 0 ]
				}

			}
, 			{
				"patchline" : 				{
					"destination" : [ "obj-3", 1 ],
					"disabled" : 0,
					"hidden" : 0,
					"source" : [ "obj-15", 0 ]
				}

			}
, 			{
				"patchline" : 				{
					"destination" : [ "obj-26", 0 ],
					"disabled" : 0,
					"hidden" : 0,
					"source" : [ "obj-17", 0 ]
				}

			}
, 			{
				"patchline" : 				{
					"destination" : [ "obj-5", 0 ],
					"disabled" : 0,
					"hidden" : 0,
					"source" : [ "obj-22", 0 ]
				}

			}
, 			{
				"patchline" : 				{
					"destination" : [ "obj-9", 1 ],
					"disabled" : 0,
					"hidden" : 0,
					"source" : [ "obj-26", 0 ]
				}

			}
, 			{
				"patchline" : 				{
					"destination" : [ "obj-16", 0 ],
					"disabled" : 0,
					"hidden" : 0,
					"source" : [ "obj-3", 0 ]
				}

			}
, 			{
				"patchline" : 				{
					"destination" : [ "obj-22", 0 ],
					"disabled" : 0,
					"hidden" : 0,
					"source" : [ "obj-4", 0 ]
				}

			}
, 			{
				"patchline" : 				{
					"destination" : [ "obj-9", 0 ],
					"disabled" : 0,
					"hidden" : 0,
					"source" : [ "obj-5", 0 ]
				}

			}
, 			{
				"patchline" : 				{
					"destination" : [ "obj-14", 0 ],
					"disabled" : 0,
					"hidden" : 0,
					"source" : [ "obj-6", 0 ]
				}

			}
, 			{
				"patchline" : 				{
					"destination" : [ "obj-10", 0 ],
					"disabled" : 0,
					"hidden" : 0,
					"source" : [ "obj-7", 0 ]
				}

			}
, 			{
				"patchline" : 				{
					"destination" : [ "obj-1", 0 ],
					"disabled" : 0,
					"hidden" : 0,
					"source" : [ "obj-8", 0 ]
				}

			}
, 			{
				"patchline" : 				{
					"destination" : [ "obj-8", 0 ],
					"disabled" : 0,
					"hidden" : 0,
					"source" : [ "obj-9", 0 ]
				}

			}
 ]
	}

}
